<svg xmlns="http://www.w3.org/2000/svg" viewBox="0 0 246 272">
    <path d="M238.55,208.16H226.43v26.37C226.43,255.22,180.12,272,123,272S19.57,255.22,19.57,234.53V208.16H7.45A7.45,7.45,0,0,1,0,200.76V141.55a7.45,7.45,0,0,1,7.45-7.4H19.57V99.92a27.94,27.94,0,0,1,28-27.76h68.92a70.55,70.55,0,0,1,13.1-31.49A24.78,24.78,0,0,1,124,25a25.13,25.13,0,1,1,25.13,25,25.46,25.46,0,0,1-8-1.28,55.61,55.61,0,0,0-10.89,23.48h68.23a27.94,27.94,0,0,1,28,27.76v34.23h12.12a7.45,7.45,0,0,1,7.45,7.4v59.21A7.45,7.45,0,0,1,238.55,208.16Zm-73-93.77c-13.78-4.27-28.45-4.46-42.4-4.23-14.36-.23-28.44-.06-42.55,4.23-25.42,11.5-33.5,41.73-31.91,66.49,1.5,7.72.71,21.77,12.64,19.67,17.51-3.13,27-23,45-26.26a91.35,91.35,0,0,1,16.82-1.67,88.44,88.44,0,0,1,16.69,1.67c18,3.25,27.37,23.13,44.87,26.26,11.94,2.1,11.18-12,12.68-19.67C198.94,156.12,190.82,125.89,165.51,114.39Zm-9.9,50.29a13.88,13.88,0,1,1,14-13.88A13.92,13.92,0,0,1,155.61,164.68ZM96,167.46H84.8V158.2H75.48V147.1H84.8v-9.25H96v9.25h9.32v11.1H96Z"/>
</svg>